<svg version="1.2" xmlns="http://www.w3.org/2000/svg" viewBox="0 0 78 78" width="78" height="78">
	<title>notification-icon-svg</title>
	<defs>
		<clipPath clipPathUnits="userSpaceOnUse" id="cp1">
			<path d="m0 0h78v78h-78z" />
		</clipPath>
		<linearGradient id="g1" x1="-2.5" y1="54" x2="59.5" y2="19" gradientUnits="userSpaceOnUse">
			<stop offset="0" stop-color="#ffba08"/>
			<stop offset="1" stop-color="#ffdb7e"/>
		</linearGradient>
		<linearGradient id="g2" x1="42.5" y1="37.5" x2="60" y2="-1.5" gradientUnits="userSpaceOnUse">
			<stop offset="0" stop-color="#166842"/>
			<stop offset="1" stop-color="#166842"/>
		</linearGradient>
	</defs>
	<style>
		.s0 { fill: #ffba08 } 
		.s1 { opacity: .3;fill: #ef4444 } 
		.s2 { fill: url(#g1) } 
		.s3 { fill: url(#g2) } 
	</style>
	<g id="Clip-Path" clip-path="url(#cp1)">
		<g id="Layer">
			<path id="Layer" class="s0" d="m47.2 65c0 7.2-5.8 13-13 13c-7.2 0-13-5.8-13-13c0-7.2 5.8-13 13-13c7.2 0 13 5.8 13 13z" />
			<path id="Layer" class="s1" d="m47.2 65c0 7.2-5.8 13-13 13c-7.2 0-13-5.8-13-13c0-7.2 5.8-13 13-13c7.2 0 13 5.8 13 13z" />
			<path id="Layer" class="s2" d="m57.5 43.3q0.6 2.3 1.6 4.4q0.9 2.1 2.4 3.9q1.4 1.9 3.2 3.4c1.3 1.1 2 2.6 2 4.3c0 3.1-2.6 5.7-5.7 5.7h-53.6c-3.2 0-5.7-2.6-5.7-5.7c0-1.7 0.7-3.2 2-4.3q1.8-1.5 3.2-3.4q1.5-1.9 2.5-4.1q1-2.2 1.5-4.5q0.5-2.3 0.5-4.7v-9c0-12.6 10.2-22.8 22.8-22.8c1.8 0 3.5 0.2 5.2 0.6q-0.5 1.1-0.9 2.2q-0.3 1.1-0.6 2.3q-0.2 1.1-0.4 2.3q-0.1 1.2-0.1 2.4c0 11.4 8.5 20.9 19.6 22.4q0 2.4 0.5 4.6z" />
			<path id="Layer" class="s3" d="m76.4 16.3c0 8.9-7.3 16.2-16.2 16.2c-9 0-16.3-7.3-16.3-16.3c0-8.9 7.3-16.2 16.3-16.2c9 0 16.2 7.3 16.2 16.3z" />
		</g>
	</g>
</svg>